<?xml version="1.0" encoding="UTF-8" ?>
<!DOCTYPE svg PUBLIC "-//W3C//DTD SVG 1.1//EN" "http://www.w3.org/Graphics/SVG/1.1/DTD/svg11.dtd">
<svg width="168pt" height="169pt" viewBox="0 0 168 169" version="1.1" xmlns="http://www.w3.org/2000/svg">
<g id="#ffffffff">
<path fill="#ffffff" opacity="1.00" d=" M 26.97 0.00 L 141.01 0.00 C 143.31 0.56 144.55 2.57 145.44 4.59 C 152.87 19.89 160.67 35.01 168.00 50.35 L 168.00 114.47 C 167.87 124.57 159.09 133.58 148.96 133.81 C 128.07 133.94 107.18 133.83 86.29 133.87 C 86.30 144.04 86.29 154.22 86.30 164.40 C 99.44 164.46 112.60 164.28 125.75 164.47 C 128.35 164.49 128.49 167.86 126.50 169.00 L 41.60 169.00 C 39.47 168.00 39.62 164.46 42.25 164.48 C 55.40 164.28 68.55 164.46 81.70 164.40 C 81.71 154.22 81.70 144.04 81.71 133.87 C 60.82 133.83 39.93 133.94 19.04 133.82 C 8.94 133.58 0.19 124.62 0.00 114.54 L 0.00 50.56 C 6.85 35.71 14.51 21.24 21.62 6.52 C 22.93 4.02 23.88 0.76 26.97 0.00 M 30.62 9.21 C 24.45 21.68 18.25 34.13 12.07 46.60 C 60.02 46.60 107.97 46.60 155.93 46.60 C 149.75 34.13 143.55 21.68 137.39 9.21 C 101.80 9.19 66.21 9.20 30.62 9.21 M 9.24 55.80 C 9.24 65.76 9.23 75.71 9.24 85.67 C 59.08 85.67 108.92 85.67 158.76 85.67 C 158.76 75.71 158.76 65.76 158.76 55.80 C 108.92 55.80 59.08 55.80 9.24 55.80 M 9.24 94.93 C 9.27 101.32 9.17 107.70 9.27 114.08 C 9.25 119.85 14.52 124.89 20.29 124.64 C 62.75 124.69 105.21 124.68 147.67 124.64 C 153.50 124.91 158.76 119.82 158.73 114.01 C 158.83 107.65 158.73 101.29 158.76 94.93 C 108.92 94.93 59.08 94.93 9.24 94.93 Z" />
<path fill="#ffffff" opacity="1.00" d=" M 22.48 59.66 C 28.40 57.63 35.34 61.80 36.30 67.98 C 37.81 74.64 31.68 81.50 24.90 80.73 C 18.71 80.45 13.67 74.04 15.06 67.94 C 15.75 64.09 18.75 60.80 22.48 59.66 M 22.50 64.69 C 18.71 66.75 18.50 72.77 22.18 75.05 C 25.96 77.95 32.05 74.80 31.89 70.05 C 32.15 65.41 26.38 62.06 22.50 64.69 Z" />
<path fill="#ffffff" opacity="1.00" d=" M 102.41 66.36 C 105.12 64.29 109.43 66.67 109.23 70.05 C 109.30 73.37 105.08 75.60 102.40 73.60 C 99.86 72.03 99.84 67.91 102.41 66.36 M 104.56 68.77 C 103.06 68.66 103.34 71.83 104.96 71.18 C 106.77 71.26 106.28 68.21 104.56 68.77 Z" />
<path fill="#ffffff" opacity="1.00" d=" M 120.35 66.36 C 122.72 64.57 126.51 66.12 127.05 69.01 C 127.99 72.30 124.15 75.51 121.08 73.99 C 117.96 72.84 117.47 68.08 120.35 66.36 M 122.64 68.41 C 122.28 68.81 121.57 69.59 121.21 69.99 C 121.57 70.37 122.29 71.15 122.65 71.54 C 124.33 70.87 124.32 69.08 122.64 68.41 Z" />
<path fill="#ffffff" opacity="1.00" d=" M 138.31 66.20 C 141.35 64.19 145.72 67.36 144.78 70.87 C 144.25 73.99 140.03 75.49 137.69 73.31 C 135.39 71.53 135.73 67.56 138.31 66.20 M 140.27 68.75 C 138.53 68.97 139.15 71.53 140.66 71.22 C 142.40 71.34 141.97 68.12 140.27 68.75 Z" />
<path fill="#ffffff" opacity="1.00" d=" M 21.24 100.26 C 26.96 97.48 34.48 100.94 36.06 107.10 C 38.21 113.57 32.78 120.99 25.97 120.89 C 20.09 121.22 14.69 115.92 14.87 110.04 C 14.82 105.89 17.50 101.96 21.24 100.26 M 24.21 104.10 C 19.65 105.01 17.85 111.45 21.38 114.53 C 24.43 117.79 30.51 116.20 31.62 111.89 C 33.17 107.53 28.63 102.79 24.21 104.10 Z" />
<path fill="#ffffff" opacity="1.00" d=" M 102.39 106.50 C 104.73 104.72 108.50 106.20 109.08 109.05 C 110.10 112.36 106.26 115.64 103.15 114.13 C 100.02 112.99 99.54 108.23 102.39 106.50 M 103.61 109.52 C 103.05 110.89 104.98 112.16 105.87 110.85 C 107.12 109.37 104.45 107.87 103.61 109.52 Z" />
<path fill="#ffffff" opacity="1.00" d=" M 120.46 106.42 C 122.77 104.79 126.36 106.21 127.00 108.95 C 128.14 112.27 124.23 115.67 121.09 114.12 C 117.90 112.97 117.48 108.08 120.46 106.42 M 121.00 110.02 C 121.88 111.15 123.70 112.30 124.09 110.12 C 123.92 107.91 121.90 109.15 121.00 110.02 Z" />
<path fill="#ffffff" opacity="1.00" d=" M 138.30 106.34 C 141.01 104.56 144.95 106.85 144.89 110.04 C 145.04 113.29 141.05 115.68 138.30 113.87 C 135.45 112.38 135.46 107.82 138.30 106.34 M 139.58 108.90 C 137.98 110.12 140.10 112.70 141.55 111.23 C 142.93 110.03 141.02 107.56 139.58 108.90 Z" />
<path fill="#ffffff" opacity="1.00" d=" M 5.42 164.57 C 9.15 164.25 12.92 164.25 16.64 164.55 C 18.79 165.17 18.38 167.73 17.10 169.00 L 5.55 169.00 C 3.54 168.26 3.22 165.21 5.42 164.57 Z" />
<path fill="#ffffff" opacity="1.00" d=" M 21.21 166.92 C 21.99 165.94 22.46 164.22 24.05 164.45 C 27.51 164.34 31.00 164.21 34.45 164.58 C 36.59 165.27 36.16 168.02 34.50 169.00 L 22.91 169.00 C 22.49 168.48 21.63 167.44 21.21 166.92 Z" />
<path fill="#ffffff" opacity="1.00" d=" M 131.17 166.97 C 131.91 165.88 132.47 164.18 134.13 164.45 C 137.59 164.34 141.07 164.21 144.52 164.59 C 146.47 165.42 146.05 167.91 144.58 169.00 L 132.88 169.00 C 132.45 168.49 131.60 167.47 131.17 166.97 Z" />
<path fill="#ffffff" opacity="1.00" d=" M 149.57 164.60 C 153.02 164.20 156.51 164.34 159.97 164.45 C 161.66 164.15 162.17 165.87 162.97 166.96 C 162.53 167.47 161.65 168.49 161.21 169.00 L 149.63 169.00 C 148.07 167.98 147.63 165.47 149.57 164.60 Z" />
</g>
</svg>
